<svg xmlns="http://www.w3.org/2000/svg"><polygon points="136,141 135,141 135,142 135,143 135,144 135,145 135,146 135,147 135,148 135,149 135,150 134,151 134,152 134,153 134,154 134,155 133,156 133,157 133,158 133,159 132,160 132,161 131,162 131,163 131,164 130,165 130,165 130,166 129,167 129,168 128,169 128,170 127,171 127,172 126,172 126,173 125,174 124,175 124,176 123,176 123,177 122,178 121,179 121,179 120,180 119,181 119,182 118,182 117,183 117,184 116,184 115,185 114,185 114,186 113,187 112,187 111,188 110,188 110,189 109,189 108,190 107,190 106,191 105,191 105,192 104,192 103,193 102,193 101,193 100,194 99,194 98,194 97,195 97,195 96,195 95,196 94,196 93,196 92,196 91,196 90,197 89,197 88,197 87,197 86,197 85,197 84,197 83,197 82,197 81,197 81,198 81,197 80,197 79,197 78,197 77,197 76,197 75,197 74,197 73,197 72,197 71,196 70,196 69,196 68,196 67,196 66,195 65,195 65,195 64,194 63,194 62,194 61,193 60,193 59,193 58,192 57,192 57,191 56,191 55,190 54,190 53,189 52,189 52,188 51,188 50,187 49,187 48,186 48,185 47,185 46,184 45,184 45,183 44,182 43,182 43,181 42,180 41,179 41,179 40,178 39,177 39,176 38,176 38,175 37,174 36,173 36,172 35,172 35,171 34,170 34,169 33,168 33,167 32,166 32,165 32,165 31,164 31,163 31,162 30,161 30,160 29,159 29,158 29,157 29,156 28,155 28,154 28,153 28,152 28,151 27,150 27,149 27,148 27,147 27,146 27,145 27,144 27,143 27,142 27,141 26,141 27,141 27,140 27,139 27,138 27,137 27,136 27,135 27,134 27,133 27,132 28,131 28,130 28,129 28,128 28,127 29,126 29,125 29,124 29,123 30,122 30,121 31,120 31,119 31,118 32,117 32,117 32,116 33,115 33,114 34,113 34,112 35,111 35,110 36,110 36,109 37,108 38,107 38,106 39,106 39,105 40,104 41,103 41,103 42,102 43,101 43,100 44,100 45,99 45,98 46,98 47,97 48,97 48,96 49,95 50,95 51,94 52,94 52,93 53,93 54,92 55,92 56,91 57,91 57,90 58,90 59,89 60,89 61,89 62,88 63,88 64,88 65,87 65,87 66,87 67,86 68,86 69,86 70,86 71,86 72,85 73,85 74,85 75,85 76,85 77,85 78,85 79,85 80,85 81,85 81,84 81,85 82,85 83,85 84,85 85,85 86,85 87,85 88,85 89,85 90,85 91,86 92,86 93,86 94,86 95,86 96,87 97,87 97,87 98,88 99,88 100,88 101,89 102,89 103,89 104,90 105,90 105,91 106,91 107,92 108,92 109,93 110,93 110,94 111,94 112,95 113,95 114,96 114,97 115,97 116,98 117,98 117,99 118,100 119,100 119,101 120,102 121,103 121,103 122,104 123,105 123,106 124,106 124,107 125,108 126,109 126,110 127,110 127,111 128,112 128,113 129,114 129,115 130,116 130,117 130,117 131,118 131,119 131,120 132,121 132,122 133,123 133,124 133,125 133,126 134,127 134,128 134,129 134,130 134,131 135,132 135,133 135,134 135,135 135,136 135,137 135,138 135,139 135,140 135,141" style="stroke:#ff0000; fill:#0000ff;" /><line x1="219" y1="144" x2="90" y2="228" style="stroke:#0000ff;" /></svg>